<svg width="183" height="53" viewBox="0 0 183 53" fill="none" xmlns="http://www.w3.org/2000/svg">
<path d="M0 35.4321V0.477889H23.1947V6.57098H7.39022V13.398H13.0737C15.8386 13.398 18.2224 13.8474 20.225 14.7463C22.2389 15.6338 23.7921 16.8911 24.8844 18.5182C25.9767 20.1453 26.5229 22.0626 26.5229 24.2699C26.5229 26.466 25.9767 28.406 24.8844 30.09C23.7921 31.7626 22.2389 33.0711 20.225 34.0155C18.2224 34.9599 15.8386 35.4321 13.0737 35.4321H0ZM7.39022 29.4926H13.0737C14.3936 29.4926 15.5086 29.2536 16.4189 28.7758C17.3292 28.2865 18.0176 27.6436 18.4841 26.8471C18.962 26.0393 19.2009 25.1575 19.2009 24.2017C19.2009 22.8135 18.6718 21.6416 17.6136 20.6858C16.5668 19.7186 15.0535 19.235 13.0737 19.235H7.39022V29.4926Z" fill="black"/>
<path d="M29.4115 35.4321V29.4926L30.4014 29.4073C31.6758 29.3048 32.7055 28.8213 33.4906 27.9565C34.2758 27.0804 34.8617 25.6865 35.2486 23.775C35.6468 21.8521 35.9028 19.2692 36.0166 16.0264L36.5969 0.477889H60.3207V35.4321H53.1353V6.4003H43.458L42.9119 18.5694C42.7298 22.4835 42.2633 25.6809 41.5124 28.1613C40.7728 30.6418 39.5894 32.4737 37.9623 33.6571C36.3466 34.8404 34.1335 35.4321 31.3231 35.4321H29.4115Z" fill="black"/>
<path d="M73.804 0.477889V35.4321H66.4138V0.477889H73.804ZM81.3137 15.685V21.4538H70.1516V15.685H81.3137ZM111.745 17.955C111.745 21.7667 111.022 25.0095 109.577 27.6834C108.144 30.3573 106.187 32.3997 103.706 33.8107C101.237 35.2102 98.4608 35.91 95.3773 35.91C92.271 35.91 89.4833 35.2045 87.0142 33.7936C84.5451 32.3827 82.5938 30.3403 81.1601 27.6664C79.7264 24.9925 79.0096 21.7553 79.0096 17.955C79.0096 14.1432 79.7264 10.9004 81.1601 8.22652C82.5938 5.55262 84.5451 3.5159 87.0142 2.11637C89.4833 0.705456 92.271 0 95.3773 0C98.4608 0 101.237 0.705456 103.706 2.11637C106.187 3.5159 108.144 5.55262 109.577 8.22652C111.022 10.9004 111.745 14.1432 111.745 17.955ZM104.252 17.955C104.252 15.4859 103.883 13.4037 103.143 11.7083C102.415 10.0129 101.385 8.72717 100.054 7.85104C98.7225 6.97491 97.1637 6.53684 95.3773 6.53684C93.5909 6.53684 92.0321 6.97491 90.7008 7.85104C89.3695 8.72717 88.3341 10.0129 87.5945 11.7083C86.8663 13.4037 86.5022 15.4859 86.5022 17.955C86.5022 20.4241 86.8663 22.5063 87.5945 24.2017C88.3341 25.897 89.3695 27.1828 90.7008 28.0589C92.0321 28.9351 93.5909 29.3731 95.3773 29.3731C97.1637 29.3731 98.7225 28.9351 100.054 28.0589C101.385 27.1828 102.415 25.897 103.143 24.2017C103.883 22.5063 104.252 20.4241 104.252 17.955Z" fill="black"/>
<path d="M129.913 35.91C127.365 35.91 125.095 35.4719 123.103 34.5958C121.124 33.7083 119.559 32.4908 118.41 30.9433C117.272 29.3845 116.686 27.5867 116.652 25.55H124.093C124.139 26.4034 124.418 27.1543 124.93 27.8029C125.453 28.4401 126.147 28.9351 127.012 29.2878C127.877 29.6405 128.849 29.8169 129.93 29.8169C131.057 29.8169 132.052 29.6177 132.917 29.2195C133.782 28.8213 134.459 28.2694 134.948 27.564C135.437 26.8585 135.682 26.045 135.682 25.1233C135.682 24.1903 135.42 23.3654 134.897 22.6485C134.385 21.9203 133.645 21.3514 132.678 20.9418C131.722 20.5322 130.585 20.3274 129.265 20.3274H126.005V14.8999H129.265C130.38 14.8999 131.364 14.7065 132.217 14.3196C133.082 13.9327 133.754 13.398 134.231 12.7153C134.709 12.0212 134.948 11.2133 134.948 10.2917C134.948 9.41556 134.738 8.64752 134.317 7.98758C133.907 7.31626 133.327 6.79285 132.576 6.41737C131.836 6.04189 130.972 5.85414 129.982 5.85414C128.98 5.85414 128.064 6.0362 127.234 6.4003C126.403 6.75303 125.737 7.25936 125.237 7.91931C124.736 8.57925 124.469 9.35297 124.435 10.2405H117.352C117.386 8.22652 117.96 6.4515 119.075 4.91543C120.191 3.37936 121.692 2.17895 123.581 1.3142C125.481 0.438065 127.626 0 130.016 0C132.428 0 134.539 0.438065 136.348 1.3142C138.157 2.19033 139.562 3.37367 140.563 4.86423C141.576 6.34341 142.077 8.00464 142.065 9.84793C142.077 11.805 141.468 13.4378 140.239 14.7463C139.022 16.0548 137.434 16.8854 135.477 17.2381V17.5112C138.049 17.8412 140.006 18.7344 141.349 20.1908C142.703 21.6359 143.374 23.445 143.362 25.6183C143.374 27.6095 142.799 29.3788 141.639 30.9263C140.489 32.4737 138.902 33.6912 136.877 34.5787C134.852 35.4662 132.53 35.91 129.913 35.91Z" fill="black"/>
<path d="M90.7653 45.1238L90.9751 44.2843C91.0101 44.0045 91.15 43.7771 91.3949 43.6022C91.22 43.3224 91.185 42.9726 91.2899 42.5529L91.4473 42.0282L91.6572 41.556C91.5523 41.3811 91.5698 41.1537 91.7097 40.8739C91.5698 40.734 91.5348 40.5241 91.6047 40.2443L91.6572 39.982L91.7097 39.6672C91.7447 39.4573 91.8846 39.3524 92.1294 39.3524C91.9545 39.2824 91.8671 39.0725 91.8671 38.7227V38.3555C91.937 38.1806 91.937 38.0582 91.8671 37.9882L92.0245 37.8833L92.1294 37.7783C92.0944 37.5685 92.0944 37.3936 92.1294 37.2536L92.1819 37.0962L92.2344 36.9913C92.3393 36.8164 92.3568 36.6065 92.2868 36.3617L92.2344 36.0469V35.7846C92.4792 35.4697 92.4967 35.2599 92.2868 35.1549C92.042 35.2599 91.8321 35.1724 91.6572 34.8926C91.6572 34.228 91.9895 33.6858 92.6541 33.2661C92.6541 33.0912 92.759 32.9513 92.9689 32.8464L92.9164 32.4791L92.864 32.0593C92.9689 31.9544 93.0389 31.867 93.0738 31.797L93.1788 31.4822L93.3362 31.1674L93.4411 30.9051C93.5111 30.6952 93.5111 30.4853 93.4411 30.2754L93.8608 29.6458C93.7209 29.296 93.7734 29.0162 94.0183 28.8064L93.9658 28.5965V28.2817L93.9133 27.757C93.9483 27.3373 94.1057 27.0749 94.3855 26.97C94.3156 26.4103 94.2806 26.0605 94.2806 25.9206C94.3505 25.9206 94.403 25.9031 94.438 25.8682L94.5954 25.7632C94.4555 25.6233 94.403 25.4659 94.438 25.291L94.5429 25.0811C94.5779 25.0462 94.5954 24.9587 94.5954 24.8188C94.5604 24.6089 94.5954 24.4515 94.7003 24.3466L94.8053 24.0843V23.9269L94.8577 23.7695L94.9627 23.5596C95.0676 23.2098 95.1551 22.93 95.225 22.7201L95.3824 22.3528L95.4873 21.9856C95.6622 21.7407 95.8546 21.5133 96.0645 21.3035L96.4318 20.9887L96.8515 20.7263C97.2013 20.5165 97.4986 20.5339 97.7435 20.7788L98.1632 20.9887L98.5305 21.251C98.7403 21.5308 98.8278 21.8107 98.7928 22.0905L98.7403 22.5102V22.93C98.7054 23.1748 98.548 23.4022 98.2681 23.612C98.3381 23.7869 98.3381 24.0493 98.2681 24.3991C98.3031 24.7488 98.2332 25.1336 98.0583 25.5534C98.0583 25.6233 98.0058 25.6233 97.9009 25.5534L97.7435 25.5009L97.6385 25.6058C97.9883 25.8856 98.1807 26.0431 98.2157 26.078C98.2507 26.148 98.2332 26.2179 98.1632 26.2879L98.1107 26.3928L98.0058 26.4453C97.8659 26.6202 97.8309 26.7951 97.9009 26.97V27.1274L97.9533 27.2848C97.9883 27.5296 97.7784 27.7745 97.3237 28.0193C97.3937 28.0893 97.4811 28.1068 97.5861 28.0718L97.691 28.0193L97.8484 27.9669C97.7435 28.1767 97.7435 28.4216 97.8484 28.7014L97.691 28.8588L97.5861 29.0162C97.4811 29.0862 97.3587 29.1561 97.2188 29.2261C97.1838 29.296 97.2013 29.366 97.2712 29.436H97.3762L97.4811 29.4884L97.5336 29.7508L97.5861 30.0656C97.621 30.3104 97.7085 30.4503 97.8484 30.4853C98.0583 30.3454 98.2506 30.1705 98.4255 29.9606C98.4955 29.8907 98.5829 29.8732 98.6879 29.9082L98.7928 29.9606H98.8977C98.9677 29.9956 99.0552 29.9606 99.1601 29.8557C99.265 29.7508 99.37 29.5759 99.4749 29.331L99.7897 29.0687C99.9996 28.9987 100.139 28.9637 100.209 28.9637C100.244 28.9637 100.384 28.8763 100.629 28.7014C100.769 28.5965 100.892 28.4915 100.996 28.3866L101.416 28.2817C101.591 28.2117 101.696 28.1243 101.731 28.0193C101.941 28.0193 102.098 27.8969 102.203 27.6521L102.623 27.4422C102.763 27.3373 102.903 27.3373 103.043 27.4422C103.113 27.3373 103.253 27.1799 103.462 26.97C103.672 26.7601 103.917 26.5852 104.197 26.4453L104.564 26.183L104.932 25.9731L105.194 25.7632L105.509 25.6058C105.789 25.4309 105.998 25.4309 106.138 25.6058C106.383 25.291 106.75 25.0986 107.24 25.0287L107.502 24.9762H107.765C108.045 24.9063 108.237 24.8188 108.342 24.7139L108.499 24.7663L108.709 24.8713C108.779 24.6264 108.902 24.4865 109.076 24.4515H109.181L109.286 24.504C109.391 24.574 109.479 24.574 109.549 24.504C109.654 24.3991 109.724 24.2941 109.759 24.1892C110.003 24.1192 110.161 24.2242 110.231 24.504C110.441 24.3641 110.598 24.3466 110.703 24.4515L110.86 24.6614L111.018 24.9237L111.123 25.0811L111.175 25.291C111.245 25.4659 111.315 25.5708 111.385 25.6058C111.525 25.4659 111.717 25.4659 111.962 25.6058L112.015 25.9206L112.067 26.3404C112.137 26.6202 112.225 26.7601 112.329 26.7601C112.434 26.7601 112.539 26.6552 112.644 26.4453C112.749 26.4453 112.802 26.4628 112.802 26.4978C113.012 26.7426 113.064 27.0224 112.959 27.3373L112.644 27.3897C112.504 27.3897 112.417 27.4072 112.382 27.4422C112.662 27.757 112.627 28.0018 112.277 28.1767L112.015 28.2817L111.805 28.3866C111.56 28.4566 111.42 28.509 111.385 28.544C111.28 28.614 111.053 28.6839 110.703 28.7539L110.388 28.8064L110.021 28.8588C109.811 28.6839 109.654 28.7364 109.549 29.0162L108.972 29.2786C108.832 29.3485 108.622 29.436 108.342 29.5409H108.185L108.027 29.4884C107.887 29.4535 107.782 29.4709 107.712 29.5409C107.677 29.436 107.607 29.366 107.502 29.331C107.432 29.296 107.363 29.331 107.293 29.436C107.188 29.7158 106.925 29.9606 106.506 30.1705L105.981 30.3804L105.509 30.5903C105.369 30.8701 105.211 31.0275 105.036 31.0625L104.827 31.1149L104.722 31.2199C104.652 31.2548 104.599 31.2898 104.564 31.3248C104.529 31.3598 104.477 31.3948 104.407 31.4297L104.302 31.5347H104.092C103.917 31.4647 103.742 31.5871 103.567 31.9019L103.358 32.1118L103.043 32.1643C102.798 32.2342 102.658 32.3392 102.623 32.4791C102.518 32.4791 102.378 32.5316 102.203 32.6365L101.993 32.7939L101.836 32.8988L101.311 33.1612C101.171 33.1612 101.031 33.0387 100.892 32.7939C100.752 32.8988 100.682 32.9863 100.682 33.0562L100.839 33.2136C100.944 33.3186 100.909 33.4235 100.734 33.5284C100.769 33.5634 100.857 33.6159 100.996 33.6858L101.311 33.7908C101.521 33.8258 101.679 33.9307 101.783 34.1056C101.993 34.0706 102.098 34.1406 102.098 34.3155C102.168 34.4903 102.116 34.6652 101.941 34.8401L102.151 34.7352L102.308 34.6303L102.518 34.5253C102.623 34.5253 102.763 34.8401 102.938 35.4697C103.148 35.3998 103.305 35.2774 103.41 35.1025C103.515 35.2074 103.585 35.2949 103.62 35.3648L103.725 35.6271C103.83 35.872 103.952 36.0469 104.092 36.1518C104.197 36.1518 104.302 36.2742 104.407 36.5191C104.442 36.624 104.512 36.729 104.617 36.8339C104.687 36.8689 104.827 36.9214 105.036 36.9913V37.9882C105.281 37.9532 105.526 37.8133 105.771 37.5685C105.806 37.9532 105.858 38.1631 105.928 38.1981C105.963 38.233 106.156 38.233 106.506 38.1981C106.576 38.268 106.611 38.338 106.611 38.4079L106.663 38.6178C106.663 38.8627 106.715 39.0026 106.82 39.0375C106.855 39.0375 106.908 38.9851 106.978 38.8801V38.7752L107.083 38.6703C107.083 38.8801 107.17 39.0201 107.345 39.09C107.415 39.125 107.607 39.1075 107.922 39.0375C107.922 39.4573 108.115 39.6672 108.499 39.6672L108.604 40.0869C108.674 40.0869 108.709 40.0519 108.709 39.982V39.8246C108.919 39.8945 109.024 39.9645 109.024 40.0344L108.972 40.1394C108.972 40.2443 108.989 40.3143 109.024 40.3492C109.199 40.4192 109.304 40.4717 109.339 40.5066L109.391 40.6116L109.444 40.664C109.514 40.769 109.759 40.804 110.178 40.769C110.283 40.804 110.371 40.8914 110.441 41.0313V41.1363L110.493 41.2412C110.528 41.3811 110.738 41.5035 111.123 41.6085C111.123 41.7834 111.105 41.9408 111.07 42.0807L110.965 42.343L110.913 42.5529C110.878 42.7278 110.895 42.8677 110.965 42.9726C111.07 43.0426 111.245 43.0776 111.49 43.0776C111.56 43.0776 111.682 43.1475 111.857 43.2874C111.542 43.4273 111.35 43.8121 111.28 44.4417L111.438 44.7041L111.542 45.0189C111.263 45.3337 111.035 45.5435 110.86 45.6485C110.685 45.4386 110.563 45.3686 110.493 45.4386L110.388 45.596L110.283 45.8583C110.108 45.7884 109.916 45.7884 109.706 45.8583L109.444 45.9108H109.181C109.042 45.8409 108.954 45.7709 108.919 45.7009L108.814 45.5435L108.762 45.3861C108.727 45.1413 108.569 45.0713 108.289 45.1763L108.132 45.0189L107.975 44.809L107.502 44.3368L107.398 44.1794C107.363 44.1094 107.275 44.0395 107.135 43.9695L106.82 44.1794C106.68 44.2144 106.541 44.2144 106.401 44.1794L106.453 43.917C106.453 43.8121 106.418 43.7247 106.348 43.6547L106.243 43.4973L106.138 43.3924C106.103 43.3574 106.051 43.3224 105.981 43.2874L105.876 43.1825L105.719 43.13L105.614 42.9726C105.544 42.9027 105.456 42.8852 105.351 42.9202C105.316 42.6053 105.176 42.4479 104.932 42.4479C104.897 42.4479 104.792 42.3955 104.617 42.2905L104.459 42.1331L104.302 42.0282C103.777 41.7484 103.55 41.4685 103.62 41.1887C103.585 41.1537 103.497 41.1712 103.358 41.2412C103.218 41.3111 103.13 41.3461 103.095 41.3461C102.99 41.1712 102.885 40.9614 102.78 40.7165V40.664L102.833 40.5591C102.833 40.4542 102.798 40.3667 102.728 40.2968C102.658 40.2268 102.588 40.2268 102.518 40.2968L102.308 40.5066C101.923 40.1569 101.748 39.8421 101.783 39.5622L101.626 39.6672L101.521 39.877C101.416 40.0169 101.294 40.0694 101.154 40.0344C101.189 39.8246 101.276 39.6497 101.416 39.5098C101.556 39.3698 101.556 39.1775 101.416 38.9326H100.787C100.717 38.7577 100.559 38.6528 100.314 38.6178C100.07 38.373 100.017 38.1106 100.157 37.8308C99.8422 37.8658 99.6498 37.8308 99.5798 37.7259L99.5274 37.6209L99.4749 37.5685C99.37 37.4635 99.2475 37.3936 99.1076 37.3586C99.1076 37.2886 99.0377 37.2012 98.8977 37.0962H98.7403C98.6354 37.0962 98.5655 36.9214 98.5305 36.5716L98.3731 36.5191L98.1632 36.4142C98.0233 36.3792 97.9009 36.3092 97.7959 36.2043C97.691 36.0644 97.4636 35.8895 97.1138 35.6796L97.0089 35.837L96.9564 35.9944L97.0089 36.3617L96.9564 36.6765C96.9215 36.9213 96.939 37.1487 97.0089 37.3586C96.939 37.3936 96.869 37.3761 96.799 37.3061L96.4842 37.0962C96.5192 37.2012 96.5717 37.3236 96.6416 37.4635L96.6941 37.6209L96.799 37.7259C96.834 37.8308 96.7641 37.9532 96.5892 38.0931C96.869 38.4779 96.9564 38.7577 96.8515 38.9326L96.799 39.0375V39.1425C96.7641 39.1775 96.799 39.2824 96.904 39.4573L96.799 39.6672L96.6416 39.877C96.5017 40.0169 96.4318 40.1743 96.4318 40.3492L96.3793 40.5066L96.3268 40.6116C96.2569 40.6815 96.2919 40.7515 96.4318 40.8214C96.2919 40.9264 96.2744 41.0838 96.3793 41.2937L96.4842 41.5035C96.5542 41.6085 96.5542 41.7134 96.4842 41.8183C96.3093 41.8183 96.2394 41.8533 96.2744 41.9233C96.3443 42.0282 96.4667 42.1157 96.6416 42.1856V42.7103L96.4842 42.9726C96.4143 43.1125 96.3968 43.2175 96.4318 43.2874C96.4667 43.4273 96.3968 43.5323 96.2219 43.6022L96.0645 43.5498L95.9596 43.4448C95.8196 43.3749 95.7147 43.4099 95.6448 43.5498C95.8546 43.7946 95.9596 43.952 95.9596 44.022C96.0295 44.0919 95.9246 44.2668 95.6448 44.5467L96.0645 44.6516C96.1345 44.7215 96.117 44.7565 96.012 44.7565L95.9596 44.809L95.9071 44.9139C96.117 45.1938 96.1519 45.3512 96.012 45.3861L95.9071 45.4386L95.7497 45.5435C95.6797 45.5785 95.6273 45.6835 95.5923 45.8583L95.1725 45.8059H94.8577C94.6479 45.8758 94.6129 46.1032 94.7528 46.488L94.8053 46.7503L94.9102 46.9602C94.9802 47.205 95.0676 47.3624 95.1725 47.4324C94.9627 47.4674 94.7003 47.4674 94.3855 47.4324L94.0183 47.3799H93.4411L93.2312 47.4324C93.1613 47.2925 93.0214 47.31 92.8115 47.4848C92.7415 47.4848 92.6366 47.3624 92.4967 47.1176L92.2868 46.9077C92.2518 46.8727 92.1819 46.8203 92.0769 46.7503C92.0769 46.7153 92.1119 46.5579 92.1819 46.2781C92.2518 46.0682 92.2693 45.9283 92.2344 45.8583C92.1994 45.8234 92.1469 45.8409 92.0769 45.9108L92.0245 45.9633L91.972 46.0682H91.3949C91.15 46.0682 90.9926 46.0158 90.9227 45.9108L91.0801 45.8583C91.115 45.8234 91.1325 45.8059 91.1325 45.8059C91.2025 45.8059 91.2375 45.7884 91.2375 45.7534L90.9751 45.4911C90.9402 45.4911 90.9052 45.526 90.8702 45.596L90.8177 45.7009C90.7128 45.4911 90.6953 45.2987 90.7653 45.1238ZM103.043 36.0994C103.288 35.9944 103.41 35.8545 103.41 35.6796C103.41 35.4697 103.27 35.4523 102.99 35.6271C103.025 35.6971 103.043 35.8545 103.043 36.0994ZM94.7003 47.1176C94.6304 46.9777 94.508 46.9427 94.3331 47.0126C94.438 47.1176 94.5604 47.1525 94.7003 47.1176ZM101.731 32.6365C101.766 32.4966 101.731 32.4091 101.626 32.3742C101.591 32.5141 101.626 32.6015 101.731 32.6365ZM92.4967 39.09H92.3918C92.3918 39.16 92.4267 39.1949 92.4967 39.1949L92.5492 39.1425H92.6541C92.6541 39.0725 92.6191 39.0375 92.5492 39.0375L92.4967 39.09ZM95.4349 45.0713H95.6448C95.5398 44.9664 95.4699 44.9664 95.4349 45.0713ZM103.935 36.5716H103.987L104.04 36.5191C103.97 36.4491 103.935 36.4666 103.935 36.5716ZM112.434 26.97V26.9175L112.382 26.97V27.0224L112.434 26.97Z" fill="#7A70FF"/>
<path d="M139.237 47.3274L139.079 47.17L138.922 47.5373C138.852 47.7472 138.817 47.8871 138.817 47.9571L138.607 47.5373L138.45 47.6947L138.397 47.8521C138.362 47.9221 138.31 47.992 138.24 48.062C138.1 48.1319 137.96 48.0445 137.82 47.7997C137.435 48.1145 137.103 48.2719 136.823 48.2719C136.648 48.2719 136.351 48.1844 135.931 48.0095C135.791 48.0095 135.599 48.1319 135.354 48.3768V48.1669C135.354 48.062 135.372 48.0095 135.407 48.0095C135.407 48.0445 135.337 48.062 135.197 48.062L135.092 47.7472L135.039 47.9046C134.969 47.9745 134.917 48.0445 134.882 48.1145C134.812 47.9396 134.707 47.7472 134.567 47.5373C134.392 47.3274 134.287 47.2225 134.252 47.2225C134.147 47.2225 134.06 47.4149 133.99 47.7997C133.92 47.6597 133.868 47.5373 133.833 47.4324H133.99V47.2225C134.445 47.0126 134.427 46.8727 133.938 46.8028C133.903 46.7678 133.92 46.7153 133.99 46.6454L134.147 46.5404C134.322 46.4005 134.392 46.2256 134.357 46.0157C134.077 46.4005 133.78 46.5929 133.465 46.5929C133.745 46.2431 133.938 45.9108 134.042 45.596C134.147 45.2812 134.112 45.1238 133.938 45.1238C133.728 45.1238 133.448 45.3512 133.098 45.8059L132.888 45.2812C132.818 45.0014 132.783 44.8265 132.783 44.7565L132.993 44.2843C133.063 44.0744 133.098 43.9345 133.098 43.8646C133.133 43.7247 133.098 43.6197 132.993 43.5498C132.888 43.4798 132.748 43.4798 132.573 43.5498C132.573 43.4099 132.608 43.235 132.678 43.0251C132.573 42.9901 132.486 43.0601 132.416 43.235L132.364 43.4973L132.311 43.7072C132.101 43.4623 132.049 43.1125 132.154 42.6578L132.364 42.1331L132.468 41.556C132.084 41.7309 131.891 41.7309 131.891 41.556L131.944 41.3986L131.996 41.1887C132.066 41.0488 132.066 40.8914 131.996 40.7165C131.821 40.6116 131.734 40.7165 131.734 41.0313C131.559 41.0313 131.472 40.8739 131.472 40.5591V40.1918C131.472 40.0869 131.489 40.0169 131.524 39.982C131.349 39.8071 131.279 39.5972 131.314 39.3524L131.367 39.0375L131.524 38.7227C131.489 38.6528 131.419 38.5653 131.314 38.4604C131.279 38.4254 131.244 38.4079 131.209 38.4079L131.104 38.5129L131.052 38.7752C131.017 39.0201 130.859 39.09 130.58 38.9851V38.8801L130.632 38.7752C130.842 38.5304 130.877 38.3555 130.737 38.2505L130.685 38.1981L130.632 38.0931C130.597 38.0232 130.615 37.9007 130.685 37.7259L130.58 37.516C130.545 37.4111 130.545 37.3061 130.58 37.2012C130.65 37.3411 130.72 37.3761 130.789 37.3061C130.859 37.3061 130.894 37.2362 130.894 37.0962C130.894 37.0263 130.859 36.9214 130.789 36.7814C130.755 36.6765 130.65 36.624 130.475 36.624C130.125 36.8689 129.898 36.7814 129.793 36.3617C130.072 35.7671 130.107 35.4523 129.898 35.4173H129.688L129.478 35.2599C129.268 35.085 129.128 34.7877 129.058 34.3679C129.128 34.1581 129.146 33.9832 129.111 33.8432C129.076 33.7033 128.971 33.5984 128.796 33.5284C128.621 33.0038 128.376 32.5141 128.061 32.0593C127.746 32.3042 127.519 32.6365 127.379 33.0562C127.134 33.7208 126.837 34.1755 126.487 34.4204C126.487 34.5603 126.295 34.98 125.91 35.6796C125.56 36.3092 125.315 36.624 125.175 36.624C125.175 36.694 125.14 36.8339 125.071 37.0438C125.001 37.2187 124.913 37.3411 124.808 37.411C124.458 38.3555 123.794 39.4573 122.814 40.7165V40.9264L121.975 42.5004C121.625 42.7103 121.433 43.0426 121.398 43.4973L121.293 43.5498C121.223 43.5847 121.188 43.6197 121.188 43.6547L121.031 43.8646C120.856 44.0395 120.733 44.1444 120.663 44.1794L120.558 44.5991L120.243 44.9139L119.981 45.2812C119.806 45.596 119.596 45.8409 119.352 46.0157C119.142 46.8203 118.914 47.5373 118.669 48.1669C118.46 48.3768 118.25 48.4817 118.04 48.4817C117.62 48.4817 117.183 48.2194 116.728 47.6947L116.466 47.3799L116.151 47.0126C115.871 46.6628 115.714 46.4705 115.679 46.4355C115.469 46.2256 115.364 45.9633 115.364 45.6485V44.7565L115.731 44.3893C115.731 44.4242 115.819 44.4067 115.994 44.3368L116.203 44.2843H116.361C116.396 44.0395 116.536 43.8296 116.781 43.6547C117.025 43.4448 117.253 43.3924 117.463 43.4973C117.673 43.2525 117.673 43.0251 117.463 42.8152L117.673 42.5004L117.935 42.1331C118.11 41.8533 118.215 41.626 118.25 41.4511C118.285 41.4511 118.337 41.4161 118.407 41.3461C118.442 41.3111 118.46 41.2412 118.46 41.1363C118.669 40.9264 118.844 40.6815 118.984 40.4017L119.404 39.5622L119.456 39.4048L119.561 39.2474C119.631 39.1075 119.649 38.9851 119.614 38.8801C119.684 38.7752 119.771 38.6353 119.876 38.4604C120.016 38.2855 120.104 38.1806 120.139 38.1456L120.191 37.9882L120.243 37.7783C120.278 37.6384 120.366 37.5335 120.506 37.4635C120.471 37.2187 120.523 36.9563 120.663 36.6765C120.803 36.3967 121.013 36.2393 121.293 36.2043C121.118 35.7846 121.188 35.4697 121.503 35.2599V35.1025L121.555 34.8401C121.555 34.8052 121.555 34.7352 121.555 34.6303C121.59 34.5253 121.625 34.4554 121.66 34.4204C121.8 34.1406 121.992 34.0881 122.237 34.263V33.7383L122.29 33.1612C122.325 32.7414 122.482 32.4966 122.762 32.4266L122.814 32.2167L122.919 32.0069C122.989 31.9019 123.112 31.9019 123.287 32.0069C123.252 31.797 123.322 31.6046 123.496 31.4297C123.392 31.2199 123.427 30.9225 123.601 30.5378L123.811 30.118L123.969 29.6458C124.179 30.0306 124.284 30.118 124.284 29.9082C124.284 29.8732 124.266 29.8032 124.231 29.6983C124.371 29.4884 124.458 29.296 124.493 29.1212L124.651 28.4915C124.756 27.9319 124.931 27.5471 125.175 27.3373C125.21 27.3373 125.263 27.3722 125.333 27.4422L125.543 27.6521H125.648C125.718 27.722 125.788 27.687 125.858 27.5471C125.613 27.3722 125.42 27.2148 125.28 27.0749C125.245 26.935 125.385 26.7426 125.7 26.4978C125.735 26.2179 125.893 26.0431 126.172 25.9731C126.347 25.5883 126.557 25.3959 126.802 25.3959C126.977 25.3959 127.117 25.5534 127.222 25.8682C127.292 25.8332 127.362 25.7282 127.432 25.5534L127.536 25.1336L127.851 24.7663L128.271 24.3991C128.341 24.574 128.428 24.6789 128.533 24.7139L128.743 24.8713C128.778 24.9063 128.831 24.9762 128.901 25.0811C129.006 25.1511 129.093 25.1511 129.163 25.0811C129.233 25.0811 129.268 25.0462 129.268 24.9762C129.338 24.9063 129.408 24.8713 129.478 24.8713C129.688 25.256 129.863 25.4659 130.002 25.5009L130.16 25.5534L130.265 25.5009C130.44 25.5009 130.597 25.6758 130.737 26.0256C130.527 26.2354 130.597 26.4453 130.947 26.6552C131.157 26.7951 131.279 26.9175 131.314 27.0224C131.384 27.2323 131.349 27.4597 131.209 27.7045C131.664 27.9144 131.874 28.1942 131.839 28.544C132.049 28.6839 132.171 28.9987 132.206 29.4884C132.556 29.6983 132.696 29.9431 132.626 30.223C132.626 30.258 132.661 30.3804 132.731 30.5903L132.941 30.8526C133.081 31.0275 133.098 31.2548 132.993 31.5347C133.063 31.7445 133.133 31.9019 133.203 32.0069L133.413 32.2167L133.57 32.4266C133.64 32.7764 133.728 33.0387 133.833 33.2136L134.2 33.8957C134.2 34.0006 134.235 34.1231 134.305 34.263L134.462 34.4729C134.602 34.6478 134.672 34.9626 134.672 35.4173C134.917 35.4523 135.074 35.6971 135.144 36.1518C135.284 36.2917 135.442 36.6065 135.617 37.0962C135.512 37.2012 135.477 37.3586 135.512 37.5685L135.564 37.7783L135.617 38.0407C136.036 38.3904 136.246 39.0026 136.246 39.877L136.613 40.2443C136.753 40.3842 136.806 40.5591 136.771 40.769L136.928 41.0838L137.138 41.4511C137.278 41.6959 137.348 41.9582 137.348 42.2381C137.488 42.378 137.645 42.6403 137.82 43.0251C137.995 43.4798 138.065 43.7596 138.03 43.8646L138.135 44.0744L138.292 44.2843C138.432 44.4592 138.467 44.6341 138.397 44.809C138.887 45.2987 139.219 45.8933 139.394 46.5929C139.464 46.8028 139.412 47.0476 139.237 47.3274ZM132.888 42.8677L132.783 42.9726C132.853 43.0426 132.888 43.0776 132.888 43.0776C132.923 43.0426 132.923 42.9726 132.888 42.8677ZM128.848 25.2385L128.796 25.1861C128.761 25.2211 128.761 25.2385 128.796 25.2385L128.901 25.3435C128.901 25.3085 128.883 25.2735 128.848 25.2385ZM134.252 44.5991L134.147 44.5467C134.147 44.5816 134.182 44.5991 134.252 44.5991Z" fill="#7A70FF"/>
<path d="M145.674 49.1638L146.094 48.5867L146.461 48.0095C146.636 47.5198 146.899 46.9951 147.248 46.4355L147.721 45.7009L148.193 45.0189C148.787 43.9345 149.382 42.9202 149.977 41.9757C149.977 41.9408 150.029 41.8358 150.134 41.6609L150.291 41.3986L150.396 41.1887L150.501 41.2937C150.571 41.1887 150.676 41.0488 150.816 40.8739C150.991 40.664 151.113 40.5066 151.183 40.4017C151.253 40.4017 151.306 40.3842 151.341 40.3492C151.411 40.2793 151.446 40.2268 151.446 40.1918C151.481 40.0869 151.656 39.8071 151.97 39.3524L152.233 38.9326C152.303 38.8277 152.373 38.7053 152.443 38.5653L152.81 38.0407C152.95 37.8308 153.055 37.6734 153.125 37.5685C153.265 37.2536 153.23 36.9039 153.02 36.5191C152.81 36.3442 152.67 36.1168 152.6 35.837L152.443 35.4697L152.285 35.05C152.32 34.8052 152.233 34.5428 152.023 34.263L151.761 34.0006L151.498 33.6858C151.253 33.476 151.148 33.1961 151.183 32.8464C151.009 32.7414 150.799 32.549 150.554 32.2692L150.344 31.9019L150.082 31.4822C149.942 31.4472 149.872 31.3598 149.872 31.2199V30.8526C149.452 30.6077 149.277 30.2929 149.347 29.9082C149.172 30.0131 148.945 29.8732 148.665 29.4884L148.35 28.9637L147.983 28.5965C147.773 28.4566 147.633 28.2467 147.563 27.9669L147.248 27.4947L146.934 26.97C146.619 26.5502 146.426 26.2354 146.356 26.0256C146.671 25.8856 146.794 25.5708 146.724 25.0811C146.549 25.0811 146.374 24.9937 146.199 24.8188C146.059 24.6089 146.094 24.4515 146.304 24.3466C146.234 24.1017 146.286 23.8919 146.461 23.717L146.671 23.5596L146.881 23.4546C147.091 23.3847 147.038 23.2798 146.724 23.1398L147.038 23.0349L147.406 22.93C147.581 22.7901 147.546 22.6152 147.301 22.4053C147.476 22.3353 147.633 22.2129 147.773 22.038C147.913 22.073 147.983 22.2304 147.983 22.5102L147.93 22.7726C147.965 22.8775 148.035 22.9475 148.14 22.9824C148.14 22.7726 148.21 22.6676 148.35 22.6676C148.455 22.6676 148.56 22.7376 148.665 22.8775C148.7 22.7026 148.892 22.6327 149.242 22.6676L149.347 22.9824L149.4 23.3497C149.469 23.6645 149.557 23.8569 149.662 23.9269C149.732 23.8569 149.767 23.8044 149.767 23.7695L149.714 23.6645V23.5596L149.819 23.4546H150.029C150.169 23.4546 150.257 23.3847 150.291 23.2448C150.396 23.3147 150.484 23.4721 150.554 23.717L150.659 24.3466C150.834 24.2766 150.921 24.0843 150.921 23.7695C151.166 23.8744 151.306 24.0493 151.341 24.2941L151.393 24.6089C151.463 24.7838 151.533 24.8888 151.603 24.9237L151.498 25.2385C151.463 25.3435 151.463 25.4484 151.498 25.5534C151.673 25.5184 151.883 25.5534 152.128 25.6583L152.338 25.8682L152.548 26.0256C152.618 26.1655 152.635 26.3054 152.6 26.4453L152.548 26.6552L152.6 26.865L152.862 27.1274C153.037 27.2323 153.142 27.3373 153.177 27.4422C153.387 27.792 153.317 27.9844 152.967 28.0193C152.967 28.1592 153.02 28.2992 153.125 28.4391L153.282 28.5965L153.44 28.8064C153.684 29.1212 153.684 29.401 153.44 29.6458C153.859 29.9257 154.052 30.1705 154.017 30.3804V30.5378L153.964 30.6952C153.964 30.8001 154.034 30.9051 154.174 31.01C154.279 30.9051 154.297 30.8001 154.227 30.6952L154.174 30.5903L154.069 30.4853C154.349 30.3104 154.541 30.3454 154.646 30.5903C154.751 30.7651 154.751 30.9925 154.646 31.2723C154.751 31.3073 154.839 31.4472 154.909 31.6921V31.9544L155.014 32.1643C155.119 32.7939 155.241 33.1087 155.381 33.1087H155.433L155.538 33.1612C155.643 33.2661 155.713 33.371 155.748 33.476C156.098 33.2661 156.343 32.8988 156.483 32.3742C156.658 32.3392 156.832 32.0768 157.007 31.5871C157.322 31.4822 157.567 31.2374 157.742 30.8526L157.899 30.2754L158.057 29.8032C158.162 29.4884 158.389 29.3135 158.739 29.2786C158.739 29.1386 158.756 29.0512 158.791 29.0162L158.949 28.8064C158.984 28.6664 158.984 28.544 158.949 28.4391L159.106 28.2292L159.263 28.0718C159.368 27.9319 159.421 27.7745 159.421 27.5996L159.631 27.3373L159.893 27.1274C160.138 26.9175 160.278 26.7251 160.313 26.5502C160.383 26.3753 160.54 26.183 160.785 25.9731L161.047 25.7632C161.187 25.6233 161.275 25.5184 161.31 25.4484L162.149 24.1892C162.184 23.7345 162.412 23.5946 162.831 23.7695C163.286 24.1192 163.548 24.5215 163.618 24.9762L163.671 25.2385V25.5009C163.741 25.7457 163.846 25.9381 163.986 26.078V26.4453L163.933 26.865C163.863 27.1798 163.881 27.4072 163.986 27.5471C163.916 27.687 163.846 27.792 163.776 27.8619L163.566 28.0193C163.391 28.1942 163.269 28.3691 163.199 28.544C163.129 28.7189 163.076 28.9288 163.041 29.1736C162.831 29.3485 162.726 29.4884 162.726 29.5934L162.621 29.7508L162.569 29.9606C162.534 30.0306 162.429 30.1006 162.254 30.1705C162.289 30.3104 162.202 30.5728 161.992 30.9575L161.782 31.3773C161.712 31.5871 161.677 31.7271 161.677 31.797C161.362 32.2167 161.187 32.6365 161.152 33.0562C160.837 33.371 160.645 33.6684 160.575 33.9482L159.788 34.9975L159.001 35.9944C158.406 36.729 157.987 37.4285 157.742 38.0931L157.532 38.303L157.375 38.5653C157.2 38.8452 157.06 39.0026 156.955 39.0375C156.92 39.1075 156.867 39.1775 156.797 39.2474L156.64 39.4048C156.5 39.5447 156.448 39.7371 156.483 39.982C156.343 40.2618 156.115 40.4367 155.801 40.5066C155.836 40.7165 155.766 40.8564 155.591 40.9264C155.591 41.0313 155.556 41.2237 155.486 41.5035L155.276 41.9757C155.136 42.3955 155.084 42.7278 155.119 42.9726C155.049 43.0426 154.979 43.095 154.909 43.13H154.699C154.489 43.13 154.471 43.2175 154.646 43.3924L154.436 43.7072C154.366 43.8821 154.349 44.022 154.384 44.1269C154.104 44.3368 153.912 44.5117 153.807 44.6516L153.492 45.1238C153.212 45.5785 153.02 45.8234 152.915 45.8583L152.495 46.6978C152.705 46.9077 152.635 47.1176 152.285 47.3274C152.355 47.5723 152.268 47.7647 152.023 47.9046L151.866 48.0095L151.708 48.1669C151.603 48.2719 151.551 48.4118 151.551 48.5867C151.306 48.6216 151.096 48.849 150.921 49.2687L150.764 49.741C150.624 49.9508 150.519 50.0732 150.449 50.1082C150.659 50.2132 150.711 50.3356 150.606 50.4755C150.501 50.6154 150.344 50.6854 150.134 50.6854L150.029 50.8952L149.872 51.1576C149.767 51.2975 149.609 51.4024 149.4 51.4724L149.085 51.4199H148.77C148.56 51.4549 148.595 51.6123 148.875 51.8921C148.84 51.9271 148.822 51.9621 148.822 51.9971C148.403 51.8921 148.07 52.0495 147.826 52.4693C147.721 52.4693 147.633 52.4168 147.563 52.3119L147.406 52.0495C147.266 51.8047 147.091 51.6997 146.881 51.7347C146.846 51.8746 146.794 51.9446 146.724 51.9446L146.566 51.8921H146.409C146.339 51.7522 146.234 51.6473 146.094 51.5773L145.674 51.4724L145.569 51.1576L145.517 50.8952C145.412 50.6504 145.29 50.493 145.15 50.423C145.185 50.1432 145.36 49.7235 145.674 49.1638ZM152.967 29.3835C153.037 29.5234 153.125 29.5584 153.23 29.4884C153.195 29.3835 153.107 29.3485 152.967 29.3835ZM152.495 28.0718L152.81 27.757C152.67 27.757 152.565 27.8619 152.495 28.0718ZM154.174 42.5529V42.4479L154.122 42.3955C154.052 42.3255 153.982 42.308 153.912 42.343C153.947 42.4829 154.034 42.5529 154.174 42.5529ZM160.523 27.3373L160.628 27.4422L160.68 27.3373C160.68 27.3023 160.663 27.2673 160.628 27.2323C160.558 27.2323 160.523 27.2673 160.523 27.3373Z" fill="#7A70FF"/>
<path d="M171.398 36.8864L171.136 36.7814C171.136 36.9913 171.101 37.2012 171.031 37.411L170.873 37.6734L170.768 37.8833C170.733 37.9882 170.733 38.0931 170.768 38.1981C170.698 38.268 170.663 38.3555 170.663 38.4604L170.611 38.7227L170.558 38.9326C170.628 38.9326 170.663 38.9851 170.663 39.09V39.1949L170.716 39.2474C170.716 39.2824 170.698 39.3349 170.663 39.4048C170.628 39.4748 170.611 39.5272 170.611 39.5622C170.681 39.6672 170.681 39.8246 170.611 40.0344V40.3492C170.611 40.3842 170.646 40.5066 170.716 40.7165C170.471 40.6815 170.296 40.734 170.191 40.8739L170.086 41.1363L169.981 41.4511C170.156 41.4511 170.279 41.5385 170.348 41.7134L170.296 41.9757V42.2381L169.981 42.3955L169.614 42.5529C169.894 42.9376 169.964 43.2 169.824 43.3399C170.104 43.8296 170.174 44.1969 170.034 44.4417C170.488 44.5816 170.838 44.5816 171.083 44.4417C171.118 44.4767 171.17 44.4942 171.24 44.4942C171.38 44.4242 171.503 44.4067 171.608 44.4417L171.765 44.5467L171.975 44.5991C172.08 44.4942 172.255 44.4417 172.5 44.4417L172.814 44.4942L173.129 44.4417C173.234 44.3718 173.374 44.3718 173.549 44.4417L173.916 44.5467L174.021 44.4417H174.231C174.371 44.4067 174.458 44.3368 174.493 44.2318L175.543 44.3368L175.753 44.2318L175.91 44.1269C176.085 44.022 176.085 43.917 175.91 43.8121C176.085 43.5673 176.312 43.3049 176.592 43.0251L176.645 42.8152V42.6578C176.715 42.4829 176.785 42.378 176.854 42.343C176.785 41.6784 176.54 41.0663 176.12 40.5066L175.543 39.8246L174.913 39.1949L174.756 39.1425L174.546 39.09C174.476 38.9151 174.319 38.6878 174.074 38.4079L173.811 38.0931L173.497 37.8308L173.129 37.6734L172.762 37.5685C172.517 37.4635 172.307 37.3236 172.132 37.1487L171.398 36.8864ZM179.373 40.5066C179.408 40.4717 179.39 40.4367 179.32 40.4017C179.32 40.4367 179.303 40.4542 179.268 40.4542L179.373 40.5066ZM182.311 26.7601C182.346 26.935 182.416 27.0574 182.521 27.1274C182.626 27.2673 182.661 27.4072 182.626 27.5471V27.8095L182.573 28.0718L182.101 28.4915C181.926 28.5965 181.769 28.7714 181.629 29.0162L181.052 29.1212L180.422 29.1736C180.003 29.1386 179.6 28.9812 179.216 28.7014C179.181 28.6664 179.058 28.614 178.848 28.544L178.376 28.3866C178.061 28.2817 177.886 28.1068 177.851 27.8619C177.432 27.9319 176.959 27.8444 176.435 27.5996L175.753 27.3373C175.403 27.2673 175.176 27.2323 175.071 27.2323C175.001 27.0224 174.931 26.865 174.861 26.7601C174.406 26.935 174.074 27.0399 173.864 27.0749C173.654 26.865 173.479 26.7601 173.339 26.7601C173.199 26.7601 173.042 26.8476 172.867 27.0224L172.605 27.2323L172.342 27.4947C172.412 27.5646 172.447 27.6346 172.447 27.7045L172.395 27.8619L172.342 27.9669C172.517 27.8969 172.622 27.9494 172.657 28.1243L172.605 28.3866V28.6489L172.342 29.0687L172.027 29.4884C172.307 29.5584 172.447 29.8032 172.447 30.223C172.412 30.3279 172.342 30.3979 172.237 30.4328H172.08L171.923 30.4853L171.87 30.6427V30.7477C171.835 30.8526 171.87 30.94 171.975 31.01C171.73 31.4997 171.573 31.832 171.503 32.0069L171.555 32.2167C171.625 32.3567 171.678 32.4441 171.713 32.4791C171.783 32.4791 171.87 32.4616 171.975 32.4266L172.132 32.3217L172.29 32.2692C172.36 32.4441 172.71 32.6715 173.339 32.9513C173.374 32.9863 173.462 33.0387 173.601 33.1087L173.916 33.2661L174.074 33.0562L174.179 32.8988C174.423 32.9688 174.563 33.0912 174.598 33.2661V33.5809L174.651 33.8432C174.931 33.9482 175.158 34.2455 175.333 34.7352L175.595 34.8926L175.91 35.1025C176.12 35.2424 176.33 35.2774 176.54 35.2074L176.645 35.3123C176.61 35.5572 176.662 35.7321 176.802 35.837L176.854 35.942L176.959 36.0469C177.029 36.1518 177.082 36.3267 177.117 36.5716C177.327 36.3617 177.484 36.2742 177.589 36.3092C177.624 36.3092 177.729 36.4491 177.904 36.729V37.0438C177.904 37.1487 177.956 37.2362 178.061 37.3061L177.956 37.516C177.921 37.6209 177.939 37.7084 178.009 37.7783L178.219 37.8308H178.429C178.603 37.9007 178.673 38.0057 178.638 38.1456C178.813 38.4604 178.883 38.7402 178.848 38.9851C179.023 38.9851 179.163 39.055 179.268 39.1949C179.338 39.3698 179.443 39.4573 179.583 39.4573C179.583 39.6322 179.635 39.7896 179.74 39.9295L179.898 40.1394L180.055 40.2968C179.985 40.4717 179.933 40.5241 179.898 40.4542L179.793 40.4017H179.688C179.653 40.4367 179.67 40.5241 179.74 40.664L179.95 40.9789L180.37 41.0313C180.265 41.1712 180.142 41.2412 180.003 41.2412H179.793L179.478 41.3986C179.653 41.6085 179.793 41.6959 179.898 41.6609H180.107L180.265 41.8183C180.195 41.9932 180.107 42.0632 180.003 42.0282H179.793L179.635 42.0807V42.7628C179.705 42.8327 179.705 42.9202 179.635 43.0251L179.53 43.2874C179.6 43.3924 179.67 43.5148 179.74 43.6547C179.81 43.8296 179.81 44.0045 179.74 44.1794C179.251 44.4942 178.988 44.8615 178.953 45.2812C179.128 45.4561 179.198 45.7184 179.163 46.0682C179.058 45.9633 178.988 45.8758 178.953 45.8059L178.901 45.7009C178.831 45.631 178.778 45.596 178.743 45.596C178.533 46.1207 178.271 46.488 177.956 46.6978C177.781 47.1875 177.537 47.3974 177.222 47.3274L177.064 47.4848L176.959 47.6422C176.854 47.7472 176.732 47.7647 176.592 47.6947C176.382 48.1145 176.155 48.097 175.91 47.6422C175.77 47.8521 175.543 48.097 175.228 48.3768L175.123 48.2719L174.966 48.1669C174.721 48.3418 174.528 48.3768 174.389 48.2719V48.1669L174.336 48.062C174.336 48.027 174.319 47.992 174.284 47.9571C174.284 47.9221 174.266 47.9221 174.231 47.9571C174.091 48.027 174.004 48.097 173.969 48.1669L173.864 48.4817C173.759 48.7266 173.654 48.779 173.549 48.6391L173.444 48.3768L173.339 48.062C173.164 48.3768 173.007 48.5692 172.867 48.6391C172.447 48.779 172.22 48.8315 172.185 48.7965C172.045 48.7965 171.888 48.6566 171.713 48.3768L171.398 48.5342L171.136 48.6916C170.926 48.7965 170.768 48.7616 170.663 48.5867C170.488 48.6566 170.314 48.6391 170.139 48.5342C169.999 48.779 169.789 48.9015 169.509 48.9015H169.142L169.089 48.7965C168.879 48.9364 168.67 48.9714 168.46 48.9015C168.32 49.0064 168.162 49.0239 167.987 48.9539L167.725 48.849L167.463 48.7965C167.218 48.9364 166.868 48.9364 166.413 48.7965C165.994 48.6566 165.696 48.4118 165.521 48.062L165.469 47.6422L165.417 47.1176L165.259 47.2225L165.154 47.3274C165.084 47.3974 165.014 47.3974 164.944 47.3274C164.944 46.8377 165.049 46.5404 165.259 46.4355L165.312 45.6485V44.809L165.259 44.6516L165.154 44.4417C165.049 44.3018 165.032 44.1269 165.102 43.917C165.277 43.987 165.417 43.9345 165.521 43.7596L165.626 43.5498L165.784 43.2874C165.784 42.5879 165.906 42.1331 166.151 41.9233L166.046 41.7659L165.941 41.556C165.871 41.3461 165.836 41.2062 165.836 41.1363C165.801 40.8214 165.941 40.6466 166.256 40.6116C166.186 40.4717 166.169 40.3667 166.204 40.2968L166.308 39.982C166.204 39.5972 166.308 39.2824 166.623 39.0375C166.413 38.6528 166.326 38.2505 166.361 37.8308L166.518 37.516L166.676 37.1487C166.781 36.8689 166.763 36.624 166.623 36.4142C166.658 36.3792 166.676 36.3267 166.676 36.2568C166.711 36.1518 166.728 36.0819 166.728 36.0469L166.886 35.6271C167.026 35.2774 167.061 34.9975 166.991 34.7877C167.165 34.6478 167.218 34.4379 167.148 34.1581C167.323 33.9832 167.41 33.7733 167.41 33.5284V33.1612L167.515 32.8988L167.463 32.6365L167.358 32.3742C167.288 32.1993 167.323 32.0419 167.463 31.9019C167.393 31.5871 167.393 31.1849 167.463 30.6952L167.568 29.5409C167.498 29.0512 167.55 28.4566 167.725 27.757L167.935 26.9175L168.145 26.0256C168.215 25.4659 168.302 25.0287 168.407 24.7139L168.617 24.0843L168.774 23.5071C168.914 23.4022 169.054 23.2972 169.194 23.1923C169.334 23.0874 169.439 23.0174 169.509 22.9824C169.579 22.9125 169.631 22.86 169.666 22.825C170.296 23.1049 170.856 23.2972 171.345 23.4022L171.293 23.1923L171.188 22.93L171.345 22.9824L171.555 23.0349C171.66 23.0699 171.765 23.0349 171.87 22.93L171.923 23.0349V23.1923L172.08 23.3497L172.237 23.1398C172.412 23.3497 172.57 23.4022 172.71 23.2972C172.745 23.1923 172.797 22.9999 172.867 22.7201C173.042 22.7901 173.129 22.9475 173.129 23.1923V23.4546C173.199 23.5946 173.252 23.682 173.287 23.717L173.444 23.4546L173.549 23.2448C173.689 23.0349 173.811 22.9125 173.916 22.8775V23.2448C173.916 23.3847 173.934 23.4721 173.969 23.5071C174.039 23.612 174.214 23.5771 174.493 23.4022C174.423 23.612 174.581 23.7695 174.966 23.8744C175.106 23.9094 175.28 23.8569 175.49 23.717L175.7 23.5071C175.77 23.4372 175.858 23.4022 175.963 23.4022V24.1892C176.032 24.1192 176.102 24.0843 176.172 24.0843L176.382 24.1367C176.487 24.2067 176.61 24.1892 176.75 24.0843C176.994 24.2242 177.292 24.2242 177.642 24.0843L177.694 24.3466L177.746 24.5565C177.816 24.7663 177.939 24.8363 178.114 24.7663C178.149 24.9762 178.289 25.0811 178.533 25.0811L178.848 25.0287L179.111 24.9762C179.775 25.0462 180.422 25.291 181.052 25.7108C181.087 25.8507 181.139 26.0256 181.209 26.2354C181.419 25.9906 181.577 25.8682 181.682 25.8682C181.786 25.8682 181.926 26.0256 182.101 26.3404L182.311 26.7601Z" fill="#7A70FF"/>
</svg>
